<?xml version="1.0" encoding="utf-8"?>
<!DOCTYPE svg PUBLIC "-//W3C//DTD SVG 1.1//EN" "http://www.w3.org/Graphics/SVG/1.1/DTD/svg11.dtd">
<svg version="1.1"
	 id="svg2" xmlns:dc="http://purl.org/dc/elements/1.1/" xmlns:cc="http://creativecommons.org/ns#" xmlns:rdf="http://www.w3.org/1999/02/22-rdf-syntax-ns#"
	 xmlns="http://www.w3.org/2000/svg" xmlns:xlink="http://www.w3.org/1999/xlink" x="0px" y="0px"
	 viewBox="-234.6323 -263.4686 1388.188 1531.2875" enable-background="new -234.6323 -263.4686 1388.188 1531.2875"
	 xml:space="preserve">
<g id="layer1" transform="translate(135.38 -23.249)">
	<path id="path3796" fill="#502D16" stroke="#000000" stroke-width="1.6423" d="M-226.2484,453.386
		c1.6911-2.6884,16.8057-0.6481,20.5403,5.5531c5.7426,9.5351,1.5905,25.5641-6.5745,32.984
		c-11.5263,10.4764-29.7503,12.2146-45.9549,3.6413c-36.9567-19.5516-47.7138-67.116-30.2545-103.3189
		c25.4885-52.8558,91.6947-65.9171,139.8092-39.4103c43.8905,24.1796,68.3165,74.8988,65.7923,125.4391l0.0509-0.9429
		c0,0-34.7232,256.002-40.3267,292.8225c-48.7731,320.5775,327.9021,425.3727,380.8007,323.0245
		c82.2301-159.1063-357.6606,46.083-288.0598-366.9725C-8.1231,593.7704-1.8495,605.6607,5.9679,503.4767
		c7.8174-102.184-41.813-174.5439-107.5626-212.9902c-82.5356-45.4704-196.1073-23.0645-239.8254,67.6037
		c-29.949,62.102-13.1141,147.17,51.9,177.2372c41.3417,19.118,97.8927,6.1702,115.1878-40.803
		c9.8491-26.7515,0.9527-63.6754-28.5317-72.0938c-14.0113-4.0005-39.8538,0.7734-41.8212,15.9706
		c-1.064,8.2187,8.9294,22.1349,19.6272,14.4549"/>
	<path id="path2987" fill="#502D16" stroke="#000000" stroke-width="1.6423" stroke-linecap="round" d="M821.6637-122.3888
		c-3.4449,19.1098-29.2396,25.8203-47.3705,61.7407c88.4708,175.595,165.7247,194.4322,109.361,350.1225
		c-17.6384,48.7435-122.7128,164.1481-177.8778,137.2308c-63.3436-30.8917-100.9688-40.647-120.857-36.6398
		c-49.8423-32.9856-106.3802-51.6307-166.2831-51.6307c-66.643,0-129.0784,23.1022-182.8047,63.3305
		c-11.931,0.779-250.8781,18.714-358.0219,214.9446c-109.9012,201.2641-77.7729,504.548-61.6882,543.1422
		c16.0832,38.5974,32.2072,93.7196,72.4157,35.8219c40.2003-57.8911-56.7777-294.2184,13.3864-443.8815
		c48.7698-104.0235,127.6447-199.1456,200.3609-176.9088C71.91,643.2953,54.5558,722.5282,54.5558,806.9573
		c0,258.7283,163.0083,468.4667,364.082,468.4667s364.082-209.7384,364.082-468.4667c0-74.5244-13.5569-144.9874-37.6186-207.5542
		C785.5643,570.9124,850,515.7491,931.1414,412.9525c95.7626-121.3202,130.5383-318.1469-109.4694-535.3413L821.6637-122.3888z"/>
	<path id="path2993" fill="#502D16" stroke="#000000" stroke-width="1.6423" stroke-linecap="round" d="M127.3803,140.6094
		c0,77.3935-62.7392,140.1328-140.1327,140.1328s-140.1327-62.7392-140.1327-140.1328S-90.1459,0.4767-12.7524,0.4767
		S127.3803,63.2159,127.3803,140.6094z"/>
	<path id="path2995" fill="#502D16" stroke="#000000" stroke-width="1.6423" stroke-linecap="round" d="M984.6622,140.6094
		c0,77.3935-62.7393,140.1328-140.1328,140.1328s-140.1328-62.7392-140.1328-140.1328S767.136,0.4767,844.5295,0.4767
		S984.6622,63.2159,984.6622,140.6094z"/>
	<path id="path3010" fill="#A05A2C" stroke="#000000" stroke-width="1.6423" stroke-linecap="round" d="M127.6041,142.9484
		c0,56.272-45.6171,101.8891-101.8891,101.8891S-76.1741,199.2204-76.1741,142.9484S-30.557,41.0593,25.715,41.0593
		S127.6041,86.6763,127.6041,142.9484z"/>
	<path id="path3015" fill="#A05A2C" stroke="#000000" stroke-width="1.6423" stroke-linecap="round" d="M909.3401,142.9484
		c0,56.272-45.6171,101.8891-101.8891,101.8891s-101.8892-45.6171-101.8892-101.8891S751.179,41.0593,807.451,41.0593
		S909.3401,86.6763,909.3401,142.9484z"/>
	<path id="path2989" fill="#502D16" stroke="#000000" stroke-width="1.6423" stroke-linecap="round" d="M770.0132,137.8668
		c0,166.9236-158.0782,302.2493-353.0786,302.2493S63.8561,304.7953,63.8561,137.8668s158.0781-302.2493,353.0786-302.2493
		S770.0132-29.0617,770.0132,137.8668z"/>
	<path id="path4641" fill="#A05A2C" stroke="#000000" stroke-width="0.4927" stroke-linecap="round" stroke-linejoin="round" d="
		M665.415,875.9504c0,168.4673-107.8631,305.0412-240.9258,305.0412c-133.0577,0-240.9258-136.5688-240.9258-305.0412
		s107.8631-305.0413,240.9258-305.0413C557.5469,570.9091,665.415,707.478,665.415,875.9504z"/>
	<path id="path2997" fill="#502D16" stroke="#000000" stroke-width="1.6423" stroke-linecap="round" d="M193.8064,946.1482
		c37.9678,132.8972-1.734,259.899-88.667,283.6686c-86.9409,23.7715-188.1918-64.6945-226.1586-197.5883
		c-37.9678-132.8972,1.734-259.8991,88.667-283.6685C54.5887,724.7884,155.8396,813.2544,193.8064,946.1482z"/>
	<path id="path2999" fill="#502D16" stroke="#000000" stroke-width="1.6423" stroke-linecap="round" d="M655.4385,946.1482
		c-42.1774,132.8972-6.4986,259.899,79.6815,283.6686c86.1879,23.7715,190.2411-64.6945,232.4174-197.5883
		c42.1775-132.8972,6.4987-259.8991-79.6815-283.6685C801.668,724.7884,697.6148,813.2544,655.4385,946.1482z"/>
	<path id="path3001" fill="#A05A2C" stroke="#000000" stroke-width="1.6423" stroke-linecap="round" d="M645.9044,262.3533
		c0,93.3271-102.1052,168.9765-228.0501,168.9765c-125.9531,0-228.0501-75.656-228.0501-168.9765
		c0-93.3271,102.1053-168.9765,228.0501-168.9765C543.8074,93.3768,645.9044,169.0328,645.9044,262.3533z"/>
	<path id="path3008" fill="#FFFFFF" stroke="#000000" stroke-width="7.4706" d="M349.436-112.8307
		c-33.6229,0.0131-68.5678,42.7376-83.245,74.9301c-15.9085,34.8924-19.9786,89.5449,8.9816,114.682
		c29.8801,25.9336,93.897,23.5769,118.5069-7.4015c37.7089-47.4658,26.2604-156.6543-29.9392-179.3887
		c-4.6856-1.8949-9.5006-2.8293-14.304-2.8275L349.436-112.8307z M483.7435-112.8307c-4.8034-0.0017-9.6183,0.9326-14.304,2.8275
		C413.24-87.2753,401.7932,21.9132,439.5004,69.3856c24.6099,30.9788,88.6269,33.3355,118.5069,7.4015
		c28.9604-25.1354,24.8907-79.788,8.9816-114.682c-14.6773-32.1924-49.6222-74.9169-83.245-74.9301L483.7435-112.8307z"/>
	<path id="path3013" stroke="#000000" stroke-width="3.2449" d="M378.2092-41.8175c-14.6043,0.0049-29.8012,18.5334-36.175,32.5159
		c-6.9098,15.1555-8.6705,38.8963,3.9087,49.8143c12.9781,11.2641,40.7882,10.2951,51.478-3.1601
		c16.3785-20.6158,11.3536-68.0521-13.0565-77.924c-2.0351-0.823-4.0677-1.2482-6.154-1.2474L378.2092-41.8175z M454.7191-41.8175
		c-2.0864-0.0008-4.1189,0.4244-6.154,1.2474c-24.4095,9.8716-29.435,57.3065-13.0565,77.924
		c10.6894,13.4554,38.4988,14.4242,51.478,3.1601c12.579-10.9179,10.8184-34.6592,3.9087-49.8143
		c-6.375-13.9826-21.5717-32.511-36.175-32.5159L454.7191-41.8175z"/>
	<path id="path3016" fill="#502D16" stroke="#000000" stroke-width="1.7553" d="M-78.5759,1255.1088
		c0,0-15.6928-85.1781,141.2364-87.9257c156.9285-2.7478,150.6517,82.4304,150.6517,82.4304s-103.5735,49.458-291.8864,5.4954
		L-78.5759,1255.1088z"/>
	<path id="path3018" fill="#502D16" stroke="#000000" stroke-width="1.7553" d="M909.2477,1255.1088
		c0,0,15.6929-85.1781-141.2364-87.9257c-156.9286-2.7478-150.6517,82.4304-150.6517,82.4304s103.5734,49.458,291.8864,5.4954
		L909.2477,1255.1088z"/>
	
		<linearGradient id="path3020_1_" gradientUnits="userSpaceOnUse" x1="148.8473" y1="723.8817" x2="183.0565" y2="634.5076" gradientTransform="matrix(1 0 0 -1 139.2074 910.459)">
		<stop  offset="0" style="stop-color:#4A4A4A"/>
		<stop  offset="0.5" style="stop-color:#333333;stop-opacity:0.498"/>
		<stop  offset="1" style="stop-color:#333333;stop-opacity:0"/>
	</linearGradient>
	<path id="path3020" fill="url(#path3020_1_)" d="M283.2513,272.2564c-7.3565-13.1295-8.1852-33.8199-1.7407-48.7107
		c10.7487-24.8365,54.9071-22.943,58.1112,14.6817c17.1522-42.9955-43.879-58.5481-62.056-28.5498
		c-9.1394,15.0834-14.0788,44.8398,5.6846,62.5783L283.2513,272.2564z"/>
	
		<linearGradient id="path3802_1_" gradientUnits="userSpaceOnUse" x1="-1567.0149" y1="723.8802" x2="-1532.8057" y2="634.5062" gradientTransform="matrix(-1 0 0 -1 -1012.94 910.459)">
		<stop  offset="0" style="stop-color:#4A4A4A"/>
		<stop  offset="0.5" style="stop-color:#333333;stop-opacity:0.498"/>
		<stop  offset="1" style="stop-color:#333333;stop-opacity:0"/>
	</linearGradient>
	<path id="path3802" fill="url(#path3802_1_)" d="M558.8788,272.2564c7.3566-13.1295,8.1852-33.8199,1.7407-48.7107
		c-10.7487-24.8365-54.9071-22.943-58.1113,14.6817c-17.1522-42.9955,43.879-58.5481,62.0561-28.5498
		c9.1394,15.0834,14.0788,44.8398-5.6847,62.5783L558.8788,272.2564z"/>
	<path id="path3832" fill="none" stroke="#FF0000" stroke-width="4.9269" stroke-linecap="round" stroke-linejoin="round" d="
		M373.6929,325.9105c0,0-5.9699,40.6125,48.7978,40.6125c53.989,0,48.2787-39.8521,48.2787-39.8521"/>
	<path id="path3017" fill="#A05A2C" stroke="#000000" stroke-width="1.6423" d="M-193.5867,1116.8597
		c0,0-10.686,17.4855-15.5432,58.287c-4.8573,40.8014-8.8123,94.8741,16.515,95.2026
		c25.3276,0.3291,21.3713-16.5151,21.3713-16.5151s-2.9144,19.4285,21.3713,17.4856s21.3713-16.515,21.3713-16.515
		s-6.8001,13.6003,22.3435,12.629c20.4812-0.6827,13.6004-58.287,13.6004-58.287s26.2292,23.3141,29.1443-36.9158
		c1.7675-36.5265-40.8014-64.1155-40.8014-64.1155s-42.7442-25.2585-89.3741,8.7432L-193.5867,1116.8597z"/>
	<path id="path3019" fill="#A05A2C" stroke="#000000" stroke-width="1.6423" d="M700.2154-219.4144
		c26.9501,7.3097,127.3458,90.4186,128.2048,108.8551c0.8591,18.4381-47.1932,55.4556-47.1932,55.4556
		s-38.5794,0.3284-58.4381-11.827c-19.8586-12.1554-50.908-42.7787-72.4781-15.5897
		c-29.7306,37.4773-54.9055,24.9531-51.8163,10.0956c2.9203-14.0514,7.5778-39.1656,33.8281-48.778
		c26.2489-9.6135,78.1194-6.717,70.6404-9.7873c-12.4196-5.0988-96.0353-4.9707-99.5071,5.0695
		c-17.5184,50.6535-67.295,37.7188-54.6131,17.6778c12.6812-20.041,9.223-46.6332,36.2587-50.8112
		c27.0356-4.1774,63.3946-11.1062,63.3946-11.1062s-89.3331-6.8362-92.0626,10.1512
		c-6.9033,42.9873-52.8329,47.2063-48.7797,28.8996c4.2238-19.0753,18.3495-66.5937,46.0354-73.5423
		c27.3904-6.8743,51.4517-10.3825,71.3663-15.6505c19.9129-5.2682,48.2081-6.4222,75.16,0.8875V-219.4144z"/>
</g>
</svg>
